<svg width="165" height="25" viewBox="0 0 165 25" fill="none" xmlns="http://www.w3.org/2000/svg">
<path d="M12.5 0L15.3064 8.63729H24.3882L17.0409 13.9754L19.8473 22.6127L12.5 17.2746L5.15268 22.6127L7.95911 13.9754L0.611794 8.63729H9.69357L12.5 0Z" fill="#F8E169"/>
<path d="M47.5 0L50.3064 8.63729H59.3882L52.0409 13.9754L54.8473 22.6127L47.5 17.2746L40.1527 22.6127L42.9591 13.9754L35.6118 8.63729H44.6936L47.5 0Z" fill="#F8E169"/>
<path d="M82.5 0L85.3064 8.63729H94.3882L87.0409 13.9754L89.8473 22.6127L82.5 17.2746L75.1527 22.6127L77.9591 13.9754L70.6118 8.63729H79.6936L82.5 0Z" fill="#F8E169"/>
<path d="M117.5 0L120.306 8.63729H129.388L122.041 13.9754L124.847 22.6127L117.5 17.2746L110.153 22.6127L112.959 13.9754L105.612 8.63729H114.694L117.5 0Z" fill="#F8E169"/>
<path d="M152.5 0L155.306 8.63729H164.388L157.041 13.9754L159.847 22.6127L152.5 17.2746L145.153 22.6127L147.959 13.9754L140.612 8.63729H149.694L152.5 0Z" fill="#F8E169"/>
</svg>
